<svg id="visual" viewBox="0 0 960 540" width="960" height="540" xmlns="http://www.w3.org/2000/svg" xmlns:xlink="http://www.w3.org/1999/xlink" version="1.1"><rect x="0" y="0" width="960" height="540" fill="#032333"></rect><path d="M255 0L250.7 11.3C246.3 22.7 237.7 45.3 248 67.8C258.3 90.3 287.7 112.7 275 135.2C262.3 157.7 207.7 180.3 189.2 202.8C170.7 225.3 188.3 247.7 206.8 270.2C225.3 292.7 244.7 315.3 261.2 337.8C277.7 360.3 291.3 382.7 300.2 405.2C309 427.7 313 450.3 291.2 472.8C269.3 495.3 221.7 517.7 197.8 528.8L174 540L0 540L0 528.8C0 517.7 0 495.3 0 472.8C0 450.3 0 427.7 0 405.2C0 382.7 0 360.3 0 337.8C0 315.3 0 292.7 0 270.2C0 247.7 0 225.3 0 202.8C0 180.3 0 157.7 0 135.2C0 112.7 0 90.3 0 67.8C0 45.3 0 22.7 0 11.3L0 0Z" fill="#c76413" stroke-linecap="round" stroke-linejoin="miter"></path></svg>